<svg width="3525" height="421" viewBox="0 0 3525 421" fill="none" xmlns="http://www.w3.org/2000/svg">
<path d="M0 47.0717H294.521V120.687H73.6301V194.302H294.521V267.918H73.6301V341.534H294.521V414.154H0V47.0717ZM294.521 120.687H368.151V194.302H294.521V120.687ZM294.521 267.918H368.151V341.534H294.521V267.918ZM430.339 47.0717H503.968V120.687H430.339V47.0717ZM724.862 47.0717H798.492V120.687H724.862V47.0717ZM503.968 120.687H577.598V194.302H503.968V120.687ZM651.232 120.687H724.862V194.302H651.232V120.687ZM577.598 194.302H651.232V414.154H577.598V194.302ZM860.679 47.0717H1228.83V120.687H1081.57V414.154H1007.94V120.687H860.679V47.0717ZM1291.02 47.0717H1659.17V120.687H1364.65V194.302H1585.54V267.918H1364.65V341.534H1659.17V414.154H1291.02V47.0717ZM1757.34 417.058C1740.69 417.058 1727.72 412.509 1718.43 403.412C1709.14 394.316 1704.49 381.735 1704.49 365.67V334.025C1704.49 322.412 1707.4 312.831 1713.21 305.283C1719.21 297.541 1727.63 292.412 1738.47 289.896L1735.56 292.509C1729.56 284.38 1725.11 276.638 1722.21 269.283C1719.3 261.734 1717.85 254.283 1717.85 246.928C1717.85 237.444 1720.08 229.121 1724.53 221.96C1728.98 214.799 1735.27 209.283 1743.4 205.412C1751.54 201.347 1761.02 199.315 1771.86 199.315C1783.28 199.315 1793.16 201.444 1801.48 205.702C1810 209.96 1816.58 215.863 1821.23 223.412C1825.87 230.96 1828.2 240.057 1828.2 250.702H1798C1798 245.476 1796.93 241.025 1794.8 237.347C1792.67 233.476 1789.67 230.573 1785.8 228.638C1781.93 226.702 1777.28 225.734 1771.86 225.734C1767.02 225.734 1762.67 226.702 1758.8 228.638C1755.12 230.38 1752.31 232.992 1750.37 236.476C1748.44 239.767 1747.47 243.831 1747.47 248.67C1747.47 253.315 1748.53 258.444 1750.66 264.057C1752.99 269.67 1756.08 275.186 1759.96 280.605L1804.97 343.315L1823.26 309.638H1854.62L1822.68 367.993L1855.78 414.154H1823.26L1807.29 392.09C1793.35 408.735 1776.7 417.058 1757.34 417.058ZM1759.67 390.348C1765.67 390.348 1771.38 388.509 1776.8 384.832C1782.41 381.154 1787.16 376.025 1791.03 369.445L1749.79 312.251C1744.76 313.412 1740.98 315.928 1738.47 319.799C1736.15 323.477 1734.98 328.219 1734.98 334.025V365.67C1734.98 373.412 1737.11 379.509 1741.37 383.961C1745.82 388.219 1751.92 390.348 1759.67 390.348ZM1916.87 414.154V40.5027H2028.13C2053.62 40.5027 2076.06 43.545 2095.46 49.6301C2115.24 55.3347 2130.65 64.8425 2141.68 78.1531C2153.09 91.4637 2158.79 109.338 2158.79 131.776C2158.79 150.031 2153.47 166.764 2142.82 181.977C2132.17 197.189 2115.81 207.648 2093.75 213.352V215.634C2120.76 219.817 2141.68 229.325 2156.51 244.157C2171.35 258.989 2178.76 279.145 2178.76 304.626C2178.76 329.346 2172.68 349.882 2160.51 366.236C2148.72 382.209 2132.17 394.188 2110.87 402.175C2089.57 410.161 2065.03 414.154 2037.26 414.154H1916.87ZM1973.93 195.668H2021.29C2050.2 195.668 2070.93 190.914 2083.48 181.406C2096.41 171.519 2102.88 157.067 2102.88 138.051C2102.88 119.416 2096.22 106.296 2082.91 98.6897C2069.6 91.0837 2049.63 87.2805 2023 87.2805H1973.93V195.668ZM1973.93 367.377H2030.41C2060.08 367.377 2082.91 362.243 2098.88 351.974C2114.86 341.325 2122.85 324.402 2122.85 301.203C2122.85 279.906 2115.05 264.694 2099.45 255.566C2083.86 246.059 2060.85 241.305 2030.41 241.305H1973.93V367.377ZM2343.44 421C2310.72 421 2286.57 411.302 2270.98 391.906C2255.76 372.511 2248.16 344.558 2248.16 308.049V135.199H2304.64V300.633C2304.64 324.973 2309.01 343.037 2317.77 354.827C2326.89 366.618 2341.92 372.511 2362.84 372.511C2377.29 372.511 2390.42 368.9 2402.21 361.672C2414.38 354.446 2427.32 342.657 2441.01 326.303V135.199H2497.5V414.154H2451.28L2446.72 367.947H2444.43C2430.74 383.538 2415.71 396.282 2399.36 406.168C2383.38 416.054 2364.74 421 2343.44 421ZM2723.22 414.154V180.836H2598.26V135.199H2779.71V414.154H2723.22ZM2746.61 81.0054C2734.82 81.0054 2724.74 77.3927 2716.37 70.1667C2708.39 62.5607 2704.39 52.6724 2704.39 40.5027C2704.39 28.333 2708.39 18.6352 2716.37 11.4092C2724.74 3.80324 2734.82 0 2746.61 0C2758.78 0 2768.87 3.80324 2776.85 11.4092C2784.84 18.6352 2788.84 28.333 2788.84 40.5027C2788.84 52.6724 2784.84 62.5607 2776.85 70.1667C2768.87 77.3927 2758.78 81.0054 2746.61 81.0054ZM3121.26 421C3090.06 421 3066.29 412.061 3049.94 394.188C3033.58 375.934 3025.4 350.073 3025.4 316.606V54.7642H2929.54V9.69783H3081.89V320.028C3081.89 339.424 3086.83 353.496 3096.72 362.242C3106.61 370.611 3119.16 374.793 3134.38 374.793C3149.22 374.793 3165.95 370.799 3184.59 362.813L3198.28 405.027C3184.97 409.973 3172.61 413.772 3161.2 416.436C3150.17 419.477 3136.85 421 3121.26 421ZM3385.21 421C3349.07 421 3319.98 408.261 3297.91 382.779C3275.85 356.918 3264.82 320.979 3264.82 274.962C3264.82 244.538 3270.72 218.486 3282.51 196.809C3294.3 174.751 3309.7 157.828 3328.72 146.038C3348.12 134.248 3368.47 128.354 3389.77 128.354C3406.13 128.354 3420.58 131.396 3433.14 137.481C3446.07 143.566 3458.24 152.123 3469.65 163.152H3471.37L3468.51 113.522V9.69783H3525V414.154H3478.78L3474.22 379.927H3472.51C3461.48 390.954 3448.35 400.652 3433.14 409.02C3417.93 417.007 3401.95 421 3385.21 421ZM3398.33 374.222C3423.44 374.222 3446.83 361.672 3468.51 336.572V204.225C3457.48 193.576 3446.45 186.16 3435.42 181.977C3424.39 177.794 3413.36 175.702 3402.33 175.702C3387.87 175.702 3374.56 179.695 3362.39 187.682C3350.6 195.668 3341.09 207.077 3333.86 221.909C3326.63 236.741 3323.02 254.235 3323.02 274.392C3323.02 306.337 3329.68 331.057 3342.99 348.551C3356.3 365.665 3374.75 374.222 3398.33 374.222Z" fill="#F2F2F7"/>
</svg>
