<svg width="824" height="824" viewBox="0 0 824 824" fill="none" xmlns="http://www.w3.org/2000/svg">
<mask id="mask0_36_43" style="mask-type:luminance" maskUnits="userSpaceOnUse" x="0" y="0" width="824" height="824">
<path fill-rule="evenodd" clip-rule="evenodd" d="M824 256.627C824 246.845 824.004 237.062 823.944 227.279C823.895 219.038 823.8 210.799 823.576 202.562C823.092 184.609 822.033 166.502 818.84 148.749C815.602 130.741 810.314 113.98 801.981 97.617C793.789 81.534 783.088 66.817 770.32 54.058C757.555 41.299 742.834 30.605 726.746 22.418C710.366 14.083 693.587 8.797 675.558 5.56C657.803 2.372 639.691 1.315 621.738 0.830002C613.495 0.607002 605.253 0.512998 597.008 0.461998C587.22 0.401998 577.432 0.406998 567.644 0.406998L453.997 0H368.997L257.361 0.406998C247.554 0.406998 237.747 0.401998 227.94 0.461998C219.678 0.512998 211.42 0.607002 203.161 0.830002C185.167 1.315 167.014 2.373 149.217 5.565C131.164 8.801 114.36 14.085 97.958 22.414C81.835 30.602 67.083 41.297 54.291 54.058C41.501 66.816 30.78 81.53 22.573 97.61C14.217 113.981 8.919 130.752 5.673 148.77C2.477 166.516 1.418 184.617 0.931 202.562C0.709 210.8 0.613004 219.039 0.563004 227.279C0.503004 237.063 0 249.216 0 258.999L0.00299835 369.089L0 454.998L0.508003 567.427C0.508003 577.223 0.504004 587.019 0.563004 596.815C0.613004 605.067 0.708999 613.317 0.931999 621.566C1.418 639.542 2.479 657.675 5.678 675.452C8.923 693.484 14.22 710.269 22.569 726.653C30.777 742.759 41.5 757.495 54.291 770.272C67.082 783.049 81.83 793.757 97.95 801.956C114.362 810.302 131.174 815.595 149.238 818.836C167.027 822.029 185.174 823.088 203.161 823.573C211.42 823.796 219.679 823.891 227.941 823.941C237.748 824.001 247.554 823.997 257.361 823.997L370.006 824H455.217L567.644 823.996C577.432 823.996 587.22 824.001 597.008 823.941C605.253 823.891 613.495 823.796 621.738 823.573C639.698 823.087 657.816 822.027 675.579 818.832C693.597 815.591 710.368 810.3 726.739 801.959C742.831 793.761 757.554 783.051 770.32 770.272C783.086 757.497 793.786 742.763 801.978 726.66C810.316 710.268 815.604 693.475 818.844 675.431C822.034 657.661 823.092 639.535 823.577 621.566C823.8 613.316 823.895 605.066 823.944 596.815C824.005 587.019 824 577.223 824 567.427C824 567.427 823.994 456.983 823.994 454.998V368.999C823.994 367.533 824 256.627 824 256.627Z" fill="white"/>
</mask>
<g mask="url(#mask0_36_43)">
<path fill-rule="evenodd" clip-rule="evenodd" d="M824 256.627C824 246.845 824.004 237.062 823.944 227.279C823.895 219.038 823.8 210.799 823.576 202.562C823.092 184.609 822.033 166.502 818.84 148.749C815.602 130.741 810.314 113.98 801.981 97.617C793.789 81.534 783.088 66.817 770.32 54.058C757.555 41.299 742.834 30.605 726.746 22.418C710.366 14.083 693.587 8.797 675.558 5.56C657.803 2.372 639.691 1.315 621.738 0.830002C613.495 0.607002 605.253 0.512998 597.008 0.461998C587.22 0.401998 577.432 0.406998 567.644 0.406998L453.997 0H368.997L257.361 0.406998C247.554 0.406998 237.747 0.401998 227.94 0.461998C219.678 0.512998 211.42 0.607002 203.161 0.830002C185.167 1.315 167.014 2.373 149.217 5.565C131.164 8.801 114.36 14.085 97.958 22.414C81.835 30.602 67.083 41.297 54.291 54.058C41.501 66.816 30.78 81.53 22.573 97.61C14.217 113.981 8.919 130.752 5.673 148.77C2.477 166.516 1.418 184.617 0.931 202.562C0.709 210.8 0.613004 219.039 0.563004 227.279C0.503004 237.063 0 249.216 0 258.999L0.00299835 369.089L0 454.998L0.508003 567.427C0.508003 577.223 0.504004 587.019 0.563004 596.815C0.613004 605.067 0.708999 613.317 0.931999 621.566C1.418 639.542 2.479 657.675 5.678 675.452C8.923 693.484 14.22 710.269 22.569 726.653C30.777 742.759 41.5 757.495 54.291 770.272C67.082 783.049 81.83 793.757 97.95 801.956C114.362 810.302 131.174 815.595 149.238 818.836C167.027 822.029 185.174 823.088 203.161 823.573C211.42 823.796 219.679 823.891 227.941 823.941C237.748 824.001 247.554 823.997 257.361 823.997L370.006 824H455.217L567.644 823.996C577.432 823.996 587.22 824.001 597.008 823.941C605.253 823.891 613.495 823.796 621.738 823.573C639.698 823.087 657.816 822.027 675.579 818.832C693.597 815.591 710.368 810.3 726.739 801.959C742.831 793.761 757.554 783.051 770.32 770.272C783.086 757.497 793.786 742.763 801.978 726.66C810.316 710.268 815.604 693.475 818.844 675.431C822.034 657.661 823.092 639.535 823.577 621.566C823.8 613.316 823.895 605.066 823.944 596.815C824.005 587.019 824 577.223 824 567.427C824 567.427 823.994 456.983 823.994 454.998V368.999C823.994 367.533 824 256.627 824 256.627Z" fill="url(#paint0_linear_36_43)"/>
<path d="M452.334 564.556V257.83H547.541C568.49 257.83 587.093 260.331 603.352 265.334C619.923 270.024 632.899 277.84 642.279 288.784C651.659 299.727 656.349 314.579 656.349 333.339C656.349 347.721 651.972 361.322 643.217 374.142C634.775 386.648 621.487 395.247 603.352 399.937V401.813C625.551 405.565 642.592 413.381 654.473 425.263C666.354 437.144 672.295 453.559 672.295 474.508C672.295 494.831 667.292 511.715 657.287 525.16C647.282 538.604 633.368 548.61 615.546 555.176C598.037 561.429 578.026 564.556 555.514 564.556H452.334ZM506.738 383.991H542.851C564.112 383.991 579.433 380.239 588.813 372.735C598.193 365.231 602.883 354.287 602.883 339.905C602.883 325.835 598.037 315.986 588.344 310.358C578.651 304.417 563.8 301.447 543.789 301.447H506.738V383.991ZM506.738 520.939H549.886C572.398 520.939 589.438 517.03 601.007 509.214C612.888 501.084 618.829 488.265 618.829 470.756C618.829 454.81 613.045 443.241 601.476 436.05C589.907 428.858 572.711 425.263 549.886 425.263H506.738V520.939Z" fill="#F2F2F7"/>
<path d="M128.818 259.143H373.365V320.279H189.955V381.416H373.365V442.553H189.955V503.689H373.365V564H128.818V259.143ZM373.365 320.279H434.501V381.416H373.365V320.279ZM373.365 442.553H434.501V503.689H373.365V442.553Z" fill="#F2F2F7"/>
<path d="M411.69 454.03C406.059 454.03 401.63 452.519 398.403 449.498C395.244 446.477 393.665 442.322 393.665 437.035V424.16C393.665 420.521 394.592 417.465 396.446 414.993C398.369 412.452 401.081 410.667 404.583 409.637L403.862 408.607C401.733 405.723 400.188 403.045 399.227 400.573C398.266 398.101 397.785 395.629 397.785 393.157C397.785 389.861 398.54 386.977 400.051 384.505C401.63 382.033 403.793 380.145 406.54 378.84C409.355 377.467 412.617 376.78 416.325 376.78C420.308 376.78 423.741 377.501 426.625 378.943C429.578 380.385 431.844 382.411 433.423 385.02C435.002 387.629 435.792 390.754 435.792 394.393H426.522C426.522 392.402 426.11 390.685 425.286 389.243C424.462 387.801 423.295 386.702 421.784 385.947C420.273 385.192 418.454 384.814 416.325 384.814C414.471 384.814 412.823 385.157 411.381 385.844C410.008 386.531 408.943 387.526 408.188 388.831C407.433 390.067 407.055 391.578 407.055 393.363C407.055 395.08 407.398 396.934 408.085 398.925C408.84 400.916 409.87 402.805 411.175 404.59L428.891 429.001L436.204 415.92H445.886L434.247 436.417L446.298 453H436.101L429.612 444.039C424.531 450.7 418.557 454.03 411.69 454.03ZM412.205 445.79C414.54 445.79 416.771 445.035 418.9 443.524C421.097 441.945 422.951 439.782 424.462 437.035L409.321 416.126C407.192 416.469 405.579 417.328 404.48 418.701C403.45 420.074 402.935 421.894 402.935 424.16V437.035C402.935 439.782 403.725 441.945 405.304 443.524C406.952 445.035 409.252 445.79 412.205 445.79Z" fill="#F2F2F7"/>
<mask id="mask1_36_43" style="mask-type:luminance" maskUnits="userSpaceOnUse" x="382" y="365" width="86" height="101">
<path d="M468 365H382V466H468V365Z" fill="white"/>
<path d="M411.69 454.03C406.059 454.03 401.63 452.519 398.403 449.498C395.244 446.477 393.665 442.322 393.665 437.035V424.16C393.665 420.521 394.592 417.465 396.446 414.993C398.369 412.452 401.081 410.667 404.583 409.637L403.862 408.607C401.733 405.723 400.188 403.045 399.227 400.573C398.266 398.101 397.785 395.629 397.785 393.157C397.785 389.861 398.54 386.977 400.051 384.505C401.63 382.033 403.793 380.145 406.54 378.84C409.355 377.467 412.617 376.78 416.325 376.78C420.308 376.78 423.741 377.501 426.625 378.943C429.578 380.385 431.844 382.411 433.423 385.02C435.002 387.629 435.792 390.754 435.792 394.393H426.522C426.522 392.402 426.11 390.685 425.286 389.243C424.462 387.801 423.295 386.702 421.784 385.947C420.273 385.192 418.454 384.814 416.325 384.814C414.471 384.814 412.823 385.157 411.381 385.844C410.008 386.531 408.943 387.526 408.188 388.831C407.433 390.067 407.055 391.578 407.055 393.363C407.055 395.08 407.398 396.934 408.085 398.925C408.84 400.916 409.87 402.805 411.175 404.59L428.891 429.001L436.204 415.92H445.886L434.247 436.417L446.298 453H436.101L429.612 444.039C424.531 450.7 418.557 454.03 411.69 454.03ZM412.205 445.79C414.54 445.79 416.771 445.035 418.9 443.524C421.097 441.945 422.951 439.782 424.462 437.035L409.321 416.126C407.192 416.469 405.579 417.328 404.48 418.701C403.45 420.074 402.935 421.894 402.935 424.16V437.035C402.935 439.782 403.725 441.945 405.304 443.524C406.952 445.035 409.252 445.79 412.205 445.79Z" fill="black"/>
</mask>
<g mask="url(#mask1_36_43)">
<path d="M398.403 449.498L390.8 457.447L390.842 457.488L390.885 457.528L398.403 449.498ZM396.446 414.993L387.675 408.355L387.66 408.374L387.646 408.393L396.446 414.993ZM404.583 409.637L407.687 420.19L422.374 415.87L413.595 403.329L404.583 409.637ZM403.862 408.607L412.874 402.299L412.794 402.186L412.712 402.075L403.862 408.607ZM400.051 384.505L390.781 378.583L390.722 378.675L390.665 378.769L400.051 384.505ZM406.54 378.84L411.26 388.776L411.311 388.752L411.363 388.726L406.54 378.84ZM426.625 378.943L421.706 388.782L421.752 388.805L421.798 388.827L426.625 378.943ZM435.792 394.393V405.393H446.792V394.393H435.792ZM426.522 394.393H415.522V405.393H426.522V394.393ZM411.381 385.844L406.652 375.913L406.556 375.958L406.462 376.005L411.381 385.844ZM408.188 388.831L417.574 394.567L417.642 394.455L417.708 394.342L408.188 388.831ZM408.085 398.925L397.686 402.511L397.741 402.669L397.8 402.826L408.085 398.925ZM411.175 404.59L420.078 398.129L420.067 398.114L420.056 398.1L411.175 404.59ZM428.891 429.001L419.988 435.462L430.096 449.389L438.492 434.369L428.891 429.001ZM436.204 415.92V404.92H429.751L426.603 410.552L436.204 415.92ZM445.886 415.92L455.451 421.352L464.782 404.92H445.886V415.92ZM434.247 436.417L424.682 430.985L421.181 437.149L425.349 442.884L434.247 436.417ZM446.298 453V464H467.89L455.196 446.533L446.298 453ZM436.101 453L427.192 459.452L430.485 464H436.101V453ZM429.612 444.039L438.521 437.587L429.842 425.602L420.866 437.367L429.612 444.039ZM418.9 443.524L425.266 452.495L425.293 452.475L425.32 452.456L418.9 443.524ZM424.462 437.035L434.1 442.336L437.459 436.229L433.371 430.583L424.462 437.035ZM409.321 416.126L418.23 409.674L414.257 404.188L407.569 405.266L409.321 416.126ZM404.48 418.701L395.89 411.829L395.783 411.964L395.68 412.101L404.48 418.701ZM405.304 443.524L397.526 451.302L397.695 451.471L397.871 451.633L405.304 443.524ZM411.69 443.03C408.057 443.03 406.596 442.1 405.921 441.468L390.885 457.528C396.665 462.939 404.061 465.03 411.69 465.03V443.03ZM406.006 441.549C405.462 441.028 404.665 439.997 404.665 437.035H382.665C382.665 444.648 385.027 451.925 390.8 457.447L406.006 441.549ZM404.665 437.035V424.16H382.665V437.035H404.665ZM404.665 424.16C404.665 422.463 405.062 421.838 405.246 421.593L387.646 408.393C384.122 413.092 382.665 418.578 382.665 424.16H404.665ZM405.217 421.631C405.517 421.235 406.102 420.656 407.687 420.19L401.479 399.084C396.06 400.678 391.22 403.67 387.675 408.355L405.217 421.631ZM413.595 403.329L412.874 402.299L394.85 414.915L395.571 415.945L413.595 403.329ZM412.712 402.075C410.973 399.719 409.989 397.897 409.479 396.586L388.975 404.56C390.388 408.193 392.493 411.727 395.012 415.139L412.712 402.075ZM409.479 396.586C408.976 395.292 408.785 394.168 408.785 393.157H386.785C386.785 397.09 387.556 400.91 388.975 404.56L409.479 396.586ZM408.785 393.157C408.785 391.6 409.121 390.758 409.437 390.241L390.665 378.769C387.959 383.196 386.785 388.122 386.785 393.157H408.785ZM409.321 390.427C409.748 389.759 410.304 389.23 411.26 388.776L401.82 368.904C397.282 371.059 393.513 374.307 390.781 378.583L409.321 390.427ZM411.363 388.726C412.424 388.209 413.984 387.78 416.325 387.78V365.78C411.25 365.78 406.287 366.725 401.717 368.954L411.363 388.726ZM416.325 387.78C418.994 387.78 420.666 388.262 421.706 388.782L431.544 369.104C426.816 366.74 421.622 365.78 416.325 365.78V387.78ZM421.798 388.827C423.005 389.417 423.612 390.054 424.013 390.716L442.833 379.324C440.075 374.767 436.15 371.353 431.452 369.059L421.798 388.827ZM424.013 390.716C424.367 391.301 424.792 392.371 424.792 394.393H446.792C446.792 389.136 445.638 383.957 442.833 379.324L424.013 390.716ZM435.792 383.393H426.522V405.393H435.792V383.393ZM437.522 394.393C437.522 390.868 436.783 387.192 434.837 383.785L415.735 394.701C415.599 394.462 415.539 394.27 415.517 394.179C415.497 394.098 415.522 394.154 415.522 394.393H437.522ZM434.837 383.785C432.916 380.424 430.121 377.817 426.703 376.108L416.865 395.786C416.714 395.71 416.49 395.571 416.253 395.348C416.016 395.124 415.844 394.891 415.735 394.701L434.837 383.785ZM426.703 376.108C423.32 374.417 419.728 373.814 416.325 373.814V395.814C417.179 395.814 417.227 395.967 416.865 395.786L426.703 376.108ZM416.325 373.814C413.097 373.814 409.791 374.418 406.652 375.913L416.11 395.775C415.998 395.829 415.931 395.843 415.942 395.84C415.958 395.837 416.077 395.814 416.325 395.814V373.814ZM406.462 376.005C403.203 377.635 400.522 380.118 398.668 383.32L417.708 394.342C417.563 394.592 417.351 394.874 417.067 395.139C416.786 395.402 416.51 395.578 416.3 395.683L406.462 376.005ZM398.802 383.095C396.771 386.419 396.055 390.023 396.055 393.363H418.055C418.055 393.132 418.095 393.715 417.574 394.567L398.802 383.095ZM396.055 393.363C396.055 396.541 396.688 399.618 397.686 402.511L418.484 395.339C418.108 394.249 418.055 393.618 418.055 393.363H396.055ZM397.8 402.826C398.918 405.774 400.43 408.529 402.294 411.08L420.056 398.1C419.311 397.08 418.762 396.058 418.37 395.024L397.8 402.826ZM402.272 411.051L419.988 435.462L437.794 422.54L420.078 398.129L402.272 411.051ZM438.492 434.369L445.805 421.288L426.603 410.552L419.29 423.633L438.492 434.369ZM436.204 426.92H445.886V404.92H436.204V426.92ZM436.321 410.488L424.682 430.985L443.812 441.849L455.451 421.352L436.321 410.488ZM425.349 442.884L437.4 459.467L455.196 446.533L443.145 429.95L425.349 442.884ZM446.298 442H436.101V464H446.298V442ZM445.01 446.548L438.521 437.587L420.703 450.491L427.192 459.452L445.01 446.548ZM420.866 437.367C417.355 441.969 414.364 443.03 411.69 443.03V465.03C422.749 465.03 431.706 459.43 438.358 450.711L420.866 437.367ZM412.205 456.79C417.087 456.79 421.506 455.163 425.266 452.495L412.534 434.553C412.248 434.756 412.105 434.804 412.103 434.804C412.1 434.805 412.114 434.8 412.142 434.796C412.169 434.791 412.193 434.79 412.205 434.79V456.79ZM425.32 452.456C429.042 449.781 431.925 446.291 434.1 442.336L414.824 431.734C413.977 433.272 413.152 434.108 412.48 434.592L425.32 452.456ZM433.371 430.583L418.23 409.674L400.412 422.578L415.553 443.487L433.371 430.583ZM407.569 405.266C403.383 405.942 399.059 407.868 395.89 411.829L413.07 425.573C412.646 426.102 412.143 426.493 411.68 426.739C411.247 426.969 410.993 426.999 411.073 426.986L407.569 405.266ZM395.68 412.101C392.825 415.907 391.935 420.273 391.935 424.16H413.935C413.935 423.846 413.972 423.856 413.906 424.091C413.832 424.35 413.655 424.801 413.28 425.301L395.68 412.101ZM391.935 424.16V437.035H413.935V424.16H391.935ZM391.935 437.035C391.935 441.987 393.43 447.206 397.526 451.302L413.082 435.746C413.461 436.125 413.723 436.569 413.86 436.945C413.983 437.28 413.935 437.363 413.935 437.035H391.935ZM397.871 451.633C402.127 455.534 407.403 456.79 412.205 456.79V434.79C411.648 434.79 411.527 434.717 411.697 434.772C411.787 434.802 411.943 434.863 412.138 434.975C412.335 435.088 412.54 435.235 412.737 435.415L397.871 451.633Z" fill="url(#paint1_linear_36_43)"/>
</g>
</g>
<defs>
<linearGradient id="paint0_linear_36_43" x1="412" y1="412" x2="412" y2="824" gradientUnits="userSpaceOnUse">
<stop stop-color="#7B00FF"/>
<stop offset="1" stop-color="#214CCE"/>
</linearGradient>
<linearGradient id="paint1_linear_36_43" x1="412" y1="412" x2="412" y2="824" gradientUnits="userSpaceOnUse">
<stop stop-color="#7B00FF"/>
<stop offset="1" stop-color="#214CCE"/>
</linearGradient>
</defs>
</svg>
